<svg width="18" height="18" viewBox="0 0 18 18" fill="currentColor" xmlns="http://www.w3.org/2000/svg">
<path d="M16.5 14.375C16.5 13.8227 16.0523 13.375 15.5 13.375H12.7311C11.3633 13.375 10.25 12.2617 10.25 10.8936C10.25 9.48828 11.3633 8.375 12.7311 8.375H15.5C16.0523 8.375 16.5 7.92728 16.5 7.375V6.25C16.5 5.69772 16.0523 5.25 15.5 5.25H2.5C1.94772 5.25 1.5 5.69772 1.5 6.25V15.5C1.5 16.0523 1.94772 16.5 2.5 16.5H15.5C16.0523 16.5 16.5 16.0523 16.5 15.5V14.375Z" />
<path d="M11.25 10.8582C11.25 11.5029 11.83 12 12.5426 12H15.5C16.0523 12 16.5 11.5523 16.5 11V10.75C16.5 10.1977 16.0523 9.75 15.5 9.75H12.5426C11.83 9.75 11.25 10.2471 11.25 10.8582Z" />
<path d="M14.25 2.77566C14.25 2.1332 13.6391 1.66661 13.0193 1.83565L6 3.75H13.2757C13.8138 3.75 14.25 3.31377 14.25 2.77566Z" />
</svg>
